<?xml version='1.0' encoding='UTF-8'?>
<svg x="0px" y="0px" viewBox="0 0 32 32" version="1.1" xmlns="http://www.w3.org/2000/svg" xmlns:xlink="http://www.w3.org/1999/xlink" enable-background="new 0 0 32 32" xml:space="preserve" id="Layer_1">
  <g id="Contract">
    <g opacity="0.75" class="st1">
      <path d="M22,14H10v-2h12V14z M22,8H10v2h12V8z M22,16H10v2h12V16z" fill="#727272" opacity="0.75" class="Black" />
    </g>
    <path d="M27,2H5C4.5,2,4,2.5,4,3v26c0,0.5,0.5,1,1,1h22c0.5,0,1-0.5,1-1V3C28,2.5,27.5,2,27,2z M26,28H6V4h20V28z" fill="#727272" class="Black" />
    <rect x="16" y="22" width="6" height="2" rx="0" ry="0" fill="#1177D7" class="Blue" />
  </g>
</svg>