<?xml version='1.0' encoding='UTF-8'?>
<svg x="0px" y="0px" viewBox="0 0 32 32" version="1.1" xmlns="http://www.w3.org/2000/svg" xmlns:xlink="http://www.w3.org/1999/xlink" enable-background="new 0 0 32 32" xml:space="preserve" id="Layer_1">
  <g id="AreaStepStacked">
    <polygon points="2,28 2,22 8,22 8,18 14,18 14,16 24,16 24,22 30,22 30,28  " fill="#D11C1C" class="Red" />
    <polyline points="2,16 8,16 8,14 14,14 14,10 24,10 24,14 30,14 30,22 24,22 24,16 14,16 14,18 8,18 8,22 2,22    2,12  " fill="#FFB115" class="Yellow" />
    <polygon points="2,10 8,10 8,6 14,6 14,2 24,2 24,8 30,8 30,14 24,14 24,10 14,10 14,14 8,14 8,16 2,16  " fill="#1177D7" class="Blue" />
  </g>
</svg>